<?xml version="1.0" standalone="no"?>
<!DOCTYPE svg PUBLIC "-//W3C//DTD SVG 20010904//EN"
 "http://www.w3.org/TR/2001/REC-SVG-20010904/DTD/svg10.dtd">
<svg version="1.0" xmlns="http://www.w3.org/2000/svg"
 width="700.000000pt" height="700.000000pt" viewBox="0 0 700.000000 700.000000"
 preserveAspectRatio="xMidYMid meet">
<metadata>
Created by potrace 1.11, written by Peter Selinger 2001-2013
</metadata>
<g transform="translate(0.000000,700.000000) scale(0.100000,-0.100000)"
fill="#000000" stroke="none">
<path d="M3420 6987 c-52 -17 -134 -103 -149 -157 -9 -33 -11 -149 -9 -450 3
-446 1 -432 69 -501 117 -120 322 -81 388 75 20 46 21 66 20 449 0 361 -2 406
-18 446 -21 52 -69 103 -119 127 -45 21 -135 27 -182 11z"/>
<path d="M1084 6016 c-82 -38 -133 -121 -134 -217 0 -86 29 -123 327 -420 153
-152 293 -284 311 -293 84 -43 201 -25 267 41 67 67 87 140 65 235 -12 51 -22
63 -299 341 -194 196 -301 296 -331 311 -64 32 -141 33 -206 2z"/>
<path d="M5720 6019 c-55 -24 -590 -552 -621 -612 -61 -118 -15 -262 103 -321
61 -30 114 -33 184 -9 43 14 84 51 335 302 158 157 294 301 304 320 22 44 30
130 16 174 -45 135 -195 203 -321 146z"/>
<path d="M3358 5255 c-2 -2 -30 -6 -63 -9 -121 -13 -301 -56 -415 -99 -69 -26
-211 -94 -272 -130 -146 -86 -344 -256 -448 -385 -19 -24 -43 -54 -53 -65 -11
-12 -47 -65 -81 -117 -145 -223 -246 -501 -273 -750 -10 -84 -10 -329 -1 -400
51 -394 230 -762 507 -1038 281 -280 665 -468 1046 -510 123 -14 403 -6 489
13 12 3 32 7 46 9 77 12 251 66 335 102 22 10 42 18 45 19 13 3 138 70 198
107 218 133 453 371 582 588 91 152 196 407 215 521 3 19 8 41 10 49 4 14 8
41 25 160 8 60 6 326 -4 404 -24 189 -98 424 -185 586 -32 60 -137 228 -150
240 -3 3 -24 28 -46 55 -63 79 -207 218 -294 285 -246 187 -522 305 -821 351
-67 10 -384 22 -392 14z m322 -490 c19 -3 49 -8 66 -10 17 -3 71 -16 120 -30
476 -138 827 -543 899 -1041 16 -109 12 -305 -10 -429 -26 -148 -114 -357
-207 -492 -49 -71 -177 -210 -238 -258 -163 -128 -362 -220 -565 -260 -129
-25 -323 -26 -483 -1 -41 6 -179 43 -207 55 -116 49 -176 79 -250 124 -39 24
-151 112 -199 156 -49 47 -176 202 -176 217 0 4 -6 15 -14 23 -63 72 -158 333
-182 501 -19 139 -5 403 26 486 5 13 7 24 5 24 -9 0 58 176 96 253 59 120 134
223 239 327 198 197 444 318 725 355 21 3 40 7 42 9 5 5 277 -2 313 -9z"/>
<path d="M6043 3739 c-112 -10 -186 -65 -223 -164 -38 -100 11 -225 110 -283
l45 -27 418 -2 c408 -3 419 -2 460 18 154 77 193 254 82 377 -71 79 -85 81
-480 84 -187 2 -373 0 -412 -3z"/>
<path d="M142 3718 c-80 -38 -142 -132 -142 -215 0 -57 29 -128 67 -167 74
-74 53 -71 505 -74 257 -2 422 1 446 7 96 26 173 130 174 234 1 99 -76 201
-173 227 -23 6 -194 10 -436 9 -379 0 -400 -1 -441 -21z"/>
<path d="M1619 1926 c-20 -7 -49 -22 -65 -34 -63 -45 -563 -559 -582 -598 -30
-59 -25 -155 10 -216 63 -106 188 -147 298 -97 55 25 590 553 622 613 97 188
-86 403 -283 332z"/>
<path d="M5240 1933 c-118 -41 -174 -115 -175 -228 0 -56 5 -79 24 -111 13
-23 152 -170 310 -326 305 -302 313 -308 409 -308 168 0 281 182 208 335 -18
38 -91 116 -312 336 -241 238 -296 287 -330 297 -42 12 -107 15 -134 5z"/>
<path d="M3460 1190 c-72 -13 -140 -64 -175 -133 l-25 -51 0 -405 c0 -387 1
-408 21 -451 39 -86 110 -137 203 -147 101 -10 218 70 245 169 9 31 11 158 9
449 l-3 406 -30 49 c-51 82 -153 129 -245 114z"/>
</g>
</svg>
